<?xml version="1.0" encoding="UTF-8" standalone="no"?>
<svg width="400" height="600" viewBox="0 0 400 600" xmlns="http://www.w3.org/2000/svg">
  <defs>
    <pattern id="carbonFiber" patternUnits="userSpaceOnUse" width="20" height="20">
      <rect width="20" height="20" fill="#1a1a1a" />
      <path d="M0,0 L20,20 M20,0 L0,20" stroke="#2a2a2a" stroke-width="2" />
    </pattern>
    <linearGradient id="platinumGradient" x1="0%" y1="0%" x2="100%" y2="100%">
      <stop offset="0%" stop-color="#e5e5e5" />
      <stop offset="50%" stop-color="#f5f5f5" />
      <stop offset="100%" stop-color="#cccccc" />
    </linearGradient>
    <filter id="sheen" x="-20%" y="-20%" width="140%" height="140%">
      <feGaussianBlur in="SourceAlpha" stdDeviation="3" result="blur" />
      <feSpecularLighting in="blur" surfaceScale="5" specularConstant="0.5" specularExponent="20" lighting-color="#ffffff" result="specOut">
        <fePointLight x="200" y="300" z="100" />
      </feSpecularLighting>
      <feComposite in="specOut" in2="SourceAlpha" operator="in" result="specOut" />
      <feComposite in="SourceGraphic" in2="specOut" operator="arithmetic" k1="0" k2="1" k3="1" k4="0" />
    </filter>
    <filter id="shadow" x="-20%" y="-20%" width="140%" height="140%">
      <feDropShadow dx="2" dy="2" stdDeviation="4" flood-color="#000000" flood-opacity="0.3" />
    </filter>
  </defs>
  
  <!-- Background -->
  <rect x="0" y="0" width="400" height="600" fill="#121212" />
  
  <!-- Carbon Fiber Lighter Base -->
  <rect x="130" y="150" width="140" height="310" rx="5" ry="5" fill="url(#carbonFiber)" filter="url(#shadow)" />
  
  <!-- Platinum Top -->
  <rect x="130" y="150" width="140" height="40" rx="5" ry="5" fill="url(#platinumGradient)" filter="url(#sheen)" />
  
  <!-- Flame Area -->
  <rect x="160" y="160" width="80" height="20" rx="3" ry="3" fill="#1a1a1a" />
  
  <!-- Platinum Accents -->
  <rect x="130" y="210" width="140" height="2" fill="url(#platinumGradient)" />
  <rect x="130" y="400" width="140" height="2" fill="url(#platinumGradient)" />
  
  <!-- Decorative Carbon Fiber Pattern Details -->
  <rect x="145" y="230" width="110" height="150" rx="2" ry="2" fill="url(#carbonFiber)" stroke="url(#platinumGradient)" stroke-width="1" />
  
  <!-- Control Panel -->
  <rect x="165" y="340" width="70" height="40" rx="3" ry="3" fill="#1a1a1a" stroke="url(#platinumGradient)" stroke-width="1" />
  <circle cx="200" cy="360" r="15" fill="#222222" stroke="url(#platinumGradient)" stroke-width="1" />
  
  <!-- Elegant Platinum Side Detail -->
  <rect x="130" y="250" width="3" height="110" fill="url(#platinumGradient)" />
  <rect x="267" y="250" width="3" height="110" fill="url(#platinumGradient)" />
  
  <!-- Bottom Detail -->
  <rect x="155" y="420" width="90" height="10" rx="5" ry="5" fill="url(#platinumGradient)" />
  
  <!-- Product Name -->
  <text x="200" y="500" font-family="Arial" font-size="20" text-anchor="middle" fill="#ffffff">Carbon Fiber Executive</text>
  <text x="200" y="530" font-family="Arial" font-size="16" text-anchor="middle" fill="#e5e5e5">Modern Luxury</text>
</svg>