<?xml version="1.0" encoding="UTF-8" standalone="no"?>
<svg width="200" height="200" viewBox="0 0 200 200" xmlns="http://www.w3.org/2000/svg">
  <defs>
    <pattern id="dots" width="20" height="20" patternUnits="userSpaceOnUse">
      <circle cx="2" cy="2" r="1" fill="#222222" opacity="0.3" />
      <circle cx="10" cy="10" r="0.8" fill="#333333" opacity="0.2" />
      <circle cx="18" cy="18" r="1.2" fill="#222222" opacity="0.3" />
    </pattern>
    <filter id="noise" x="0%" y="0%" width="100%" height="100%">
      <feTurbulence baseFrequency="0.7" numOctaves="3" seed="2" result="noise" type="fractalNoise" />
      <feColorMatrix type="matrix" values="0 0 0 0 0 0 0 0 0 0 0 0 0 0 0 0 0 0 0.05 0" />
    </filter>
    <radialGradient id="luxury-gradient" cx="50%" cy="50%" r="80%" fx="50%" fy="50%">
      <stop offset="0%" stop-color="#111111" stop-opacity="0.7" />
      <stop offset="70%" stop-color="#050505" stop-opacity="0.9" />
      <stop offset="100%" stop-color="#000000" stop-opacity="1" />
    </radialGradient>
    <filter id="glow" x="-20%" y="-20%" width="140%" height="140%">
      <feGaussianBlur in="SourceGraphic" stdDeviation="8" result="blur" />
      <feComposite in="SourceGraphic" in2="blur" operator="over" />
    </filter>
  </defs>
  
  <!-- Background layer -->
  <rect width="100%" height="100%" fill="url(#luxury-gradient)" />
  
  <!-- Subtle patterned overlay -->
  <rect width="100%" height="100%" fill="url(#dots)" opacity="0.05" />
  
  <!-- Noise layer for texture -->
  <rect width="100%" height="100%" filter="url(#noise)" opacity="0.2" />
  
  <!-- Subtle diagonal lines -->
  <g stroke="#ffffff" stroke-width="0.2" opacity="0.03">
    <line x1="0" y1="20" x2="200" y2="220" />
    <line x1="0" y1="60" x2="200" y2="260" />
    <line x1="0" y1="100" x2="200" y2="300" />
    <line x1="0" y1="140" x2="200" y2="340" />
    <line x1="0" y1="180" x2="200" y2="380" />
  </g>
  
  <!-- Subtle gold accents -->
  <g fill="#ffd700" opacity="0.05">
    <circle cx="20" cy="20" r="1" />
    <circle cx="180" cy="20" r="1" />
    <circle cx="20" cy="180" r="1" />
    <circle cx="180" cy="180" r="1" />
    <circle cx="100" cy="100" r="1.5" />
  </g>
</svg>
