<svg width="400" height="400" viewBox="0 0 400 400" fill="none" xmlns="http://www.w3.org/2000/svg">
  <rect width="400" height="400" fill="#F4F4F5"/>
  <path d="M200 180C211.046 180 220 171.046 220 160C220 148.954 211.046 140 200 140C188.954 140 180 148.954 180 160C180 171.046 188.954 180 200 180Z" fill="#A1A1AA"/>
  <path d="M160 220C160 208.954 168.954 200 180 200H220C231.046 200 240 208.954 240 220V240C240 251.046 231.046 260 220 260H180C168.954 260 160 251.046 160 240V220Z" fill="#A1A1AA"/>
  <rect x="120" y="120" width="160" height="160" rx="20" stroke="#A1A1AA" stroke-width="8"/>
</svg>
