
<svg xmlns="http://www.w3.org/2000/svg" width="400" height="400" viewBox="0 0 400 400" fill="none">
  <rect width="400" height="400" fill="#F5F5F5"/>
  <path d="M200 120C177.909 120 160 137.909 160 160C160 182.091 177.909 200 200 200C222.091 200 240 182.091 240 160C240 137.909 222.091 120 200 120Z" fill="#E0E0E0"/>
  <path d="M280 240C280 217.909 242.092 200 200 200C157.908 200 120 217.909 120 240V280H280V240Z" fill="#E0E0E0"/>
  <text x="200" y="320" font-family="Arial" font-size="18" text-anchor="middle" fill="#9E9E9E">Product Image</text>
</svg>
<svg xmlns="http://www.w3.org/2000/svg" width="200" height="200" viewBox="0 0 200 200">
  <rect width="200" height="200" fill="#f0f0f0"/>
  <path d="M100,65 L130,110 L100,155 L70,110 Z" fill="#d0d0d0"/>
  <circle cx="100" cy="85" r="12" fill="#a0a0a0"/>
  <text x="100" y="180" font-family="Arial" font-size="14" text-anchor="middle" fill="#808080">Product Image</text>
</svg>
